<svg width="80" height="57" viewBox="0 0 80 57" fill="none" xmlns="http://www.w3.org/2000/svg">
<g clip-path="url(#clip0_286_45)">

<path d="M40.847 49.6345C31.107 49.6345 20.2402 49.1794 14.6061 43.7613C13.7704 42.9632 13.0473 42.055 12.4567 41.0619L12.422 41.0002C10.8784 38.4242 10.1568 35.2158 10.1568 31.2438C10.1568 31.0509 10.1568 30.8581 10.1568 30.6692C10.1568 29.8979 10.2108 29.1922 10.2725 28.5405C10.9589 20.6676 14.6614 13.3637 20.6073 8.15334C26.5532 2.94295 34.283 0.228647 42.1835 0.576929C50.084 0.925212 57.5446 4.30917 63.0083 10.0225C68.472 15.7359 71.5165 23.3372 71.5064 31.2399C71.5108 32.4469 71.4335 33.6528 71.2749 34.8494L71.2286 35.1309C70.4568 40.1441 68.1183 43.6958 64.0394 45.9826C58.6638 49.0136 50.8765 49.6345 40.847 49.6345Z" fill="white"/>
<path d="M40.847 1.15689C48.8272 1.16608 56.4779 4.33807 62.1207 9.97702C67.7635 15.616 70.9377 23.2614 70.9469 31.236C70.9508 32.3731 70.8812 33.5092 70.7385 34.6373L70.6768 35.0229C69.9474 39.851 67.6899 43.2639 63.7731 45.4619C58.4902 48.4313 50.7877 49.0406 40.847 49.0406C31.1997 49.0406 20.4872 48.601 15.0152 43.3294C14.2319 42.5766 13.552 41.7233 12.9931 40.792L12.9314 40.6878C11.4611 38.2005 10.7472 35.1078 10.7472 31.2245C10.7472 31.0394 10.7472 30.8388 10.7472 30.673V30.6499C10.7472 29.8786 10.8012 29.2115 10.8591 28.5675C11.5236 21.0797 14.9696 14.1119 20.5185 9.03645C26.0674 3.96101 33.317 1.14582 40.8393 1.14532M40.8393 -0.0115662C33.0272 -0.0111988 25.4984 2.91246 19.7359 8.18353C13.9734 13.4546 10.3949 20.691 9.70527 28.4672C9.63967 29.1806 9.60494 29.9018 9.58951 30.6268C9.58951 30.8234 9.58951 31.0124 9.58951 31.2245C9.58951 35.4317 10.4192 38.7134 11.9319 41.274C11.9306 41.2855 11.9306 41.2972 11.9319 41.3087C12.5518 42.3598 13.3126 43.3212 14.1932 44.1662C19.6961 49.4686 29.5635 50.2013 40.82 50.2013C50.1819 50.2013 58.5712 49.6923 64.3134 46.4723C68.2726 44.2511 70.9546 40.738 71.792 35.2003C71.9854 33.884 72.0796 32.5549 72.0737 31.2245C72.0737 22.9402 68.7805 14.9952 62.9186 9.13726C57.0567 3.27936 49.1062 -0.0115662 40.8162 -0.0115662H40.8393Z" fill="#1D1D1B"/>
<path d="M33.6385 37.9614C30.2002 37.9614 26.6268 37.8535 23.7904 37.0938C19.0555 35.8289 16.8443 32.8981 16.8443 27.8734C16.8443 16.8868 27.6726 7.94785 40.9821 7.94785C47.9938 7.94785 54.6505 10.4583 59.2388 14.8352C63.0322 18.4524 65.1199 23.08 65.1199 27.8734C65.1199 37.2018 57.5139 37.9614 48.3257 37.9614C47.1989 37.9614 46.0335 37.9614 44.8526 37.9344C43.6718 37.9075 42.3134 37.9075 40.9937 37.9075C39.6739 37.9075 38.3889 37.9075 37.1347 37.9344C35.8806 37.9614 34.7653 37.9614 33.6385 37.9614Z" fill="#252525"/>
<path d="M40.986 8.71909C48.0749 8.71909 54.4228 11.3067 58.7101 15.3943C62.2256 18.7455 64.3519 23.107 64.3519 27.8733C64.3519 36.3572 57.6373 37.1902 48.3295 37.1902C46.0142 37.1902 43.5522 37.1362 40.9975 37.1362C38.4429 37.1362 35.9616 37.1902 33.6655 37.1902C29.9455 37.1902 26.6422 37.0552 24.0181 36.3495C20.0704 35.2929 17.6509 32.9598 17.6509 27.8656C17.6509 17.2878 28.1125 8.71138 41.0168 8.71138M41.0168 7.16886C27.2828 7.16886 16.1073 16.4548 16.1073 27.8656C16.1073 33.2182 18.5654 36.4806 23.6207 37.8303C26.5457 38.6016 30.1809 38.725 33.6539 38.725C34.7846 38.725 35.9346 38.725 37.1502 38.698C38.3657 38.671 39.6932 38.671 41.0091 38.671C42.325 38.671 43.61 38.671 44.8681 38.698C46.1261 38.725 47.2297 38.725 48.3643 38.725C53.4774 38.725 57.4946 38.4473 60.4968 37.1092C64.1551 35.4741 65.9302 32.4508 65.9302 27.8541C65.9302 22.8409 63.7576 18.0205 59.8138 14.2606C55.0789 9.74487 48.2369 7.15729 41.0207 7.15729L41.0168 7.16886Z" fill="#DADADA"/>
<path d="M64.3519 27.8734C64.3519 38.4473 53.8903 37.1285 40.986 37.1285C34.2868 37.1285 28.2514 37.4833 23.9873 36.3572C59.6209 39.0566 64.9192 25.1045 58.7179 15.4021C62.2257 18.7455 64.3519 23.107 64.3519 27.8734Z" fill="#202020"/>
<path opacity="0.5" d="M30.7945 14.3339C32.0448 15.564 28.5447 16.6245 25.7778 19.4473C23.0109 22.2702 21.9729 23.9515 21.1509 24.7459C19.9083 25.9838 20.7226 20.0566 23.4972 17.23C26.2718 14.4033 29.5442 13.1191 30.7945 14.3339Z" fill="white" stroke="white" stroke-miterlimit="10"/>
<path opacity="0.5" d="M35.5294 12.2206C35.7378 13.2117 34.8657 12.9919 33.9511 13.2001C32.2069 13.4122 31.4852 12.8801 31.4852 12.3556C31.4852 12.0355 32.6931 11.4725 33.6077 11.2797C34.5222 11.0869 35.3249 11.2488 35.5294 12.2206Z" fill="white" stroke="white" stroke-miterlimit="10"/>
<path d="M10.6314 24.287C13.0934 33.4611 30.1385 38.1234 49.0126 39.8742C49.0126 42.1879 14.282 41.2702 11.6 39.5232C8.91806 37.7763 8.17714 22.6249 10.6314 24.287Z" fill="#70606F" stroke="#1D1D1B" stroke-width="3" stroke-miterlimit="10"/>
<path d="M71.41 25.3976C69.8664 31.8531 53.2073 40.4681 34.8232 40.4681C16.4392 40.4681 10.562 36.4189 9.77088 37.275C8.97979 38.1311 11.0019 41.0696 12.1441 42.4733C13.9 44.5712 21.5291 47.7603 33.0211 47.7603C44.5131 47.7603 64.4098 45.7975 68.1646 41.7792C74.9332 33.5344 72.3052 22.4977 71.41 25.3976Z" fill="#574956" stroke="#1D1D1B" stroke-width="3" stroke-miterlimit="10"/>
<path d="M52.1499 37.9499C52.1499 37.9499 63.5724 24.6032 66.6557 38.1581C68.921 47.5366 68.3846 52.627 68.3846 52.627C68.3846 52.627 62.8084 47.822 59.3044 54.8212C56.4488 57.6941 55.1329 55.8277 55.1329 55.8277C55.1329 55.8277 57.4483 39.9397 52.64 37.9962" fill="#70606F"/>
<path d="M52.1499 37.9499C52.1499 37.9499 63.5724 24.6032 66.6557 38.1581C68.921 47.5366 68.3846 52.627 68.3846 52.627C68.3846 52.627 62.8084 47.822 59.3044 54.8212C56.4488 57.6941 55.1329 55.8277 55.1329 55.8277C55.1329 55.8277 57.4483 39.9397 52.64 37.9962" stroke="#1D1D1B" stroke-width="3" stroke-miterlimit="10"/>
<path d="M53.0105 26.5236C53.0105 28.0662 51.2199 26.1959 49.0126 26.1959C46.8053 26.1959 45.0109 28.0507 45.0109 26.5236C45.0109 24.9966 46.8014 23.7548 49.0126 23.7548C51.2238 23.7548 53.0105 24.9927 53.0105 26.5236Z" fill="white"/>
<path d="M37.5245 26.5236C37.5245 28.0662 35.7339 26.1959 33.5227 26.1959C31.3116 26.1959 29.5249 28.0507 29.5249 26.5236C29.5249 24.9966 31.3154 23.7548 33.5227 23.7548C35.7301 23.7548 37.5245 24.9927 37.5245 26.5236Z" fill="white"/>
</g>
<defs>
<clipPath id="clip0_286_45">
<rect width="80" height="57" fill="white"/>
</clipPath>
</defs>
</svg>
