<svg width="119" height="99" viewBox="0 0 119 99" fill="none" xmlns="http://www.w3.org/2000/svg">
    <g filter="url(#filter0_d_420_2)">
        <path
            d="M58.9048 86.2072C41.7388 86.2072 22.5869 85.4168 12.6573 76.0064C11.1844 74.6202 9.90991 73.0429 8.86911 71.318L8.8079 71.2108C6.08747 66.7367 4.81566 61.1641 4.81566 54.2654C4.81566 53.9305 4.81566 53.5956 4.81566 53.2674C4.81566 51.9279 4.91088 50.7022 5.01969 49.5703C6.22931 35.8963 12.7547 23.2106 23.2338 14.161C33.713 5.11138 47.3362 0.39706 61.2602 1.00197C75.1842 1.60688 88.333 7.48428 97.9622 17.4075C107.592 27.3307 112.957 40.5329 112.94 54.2587C112.947 56.3551 112.811 58.4496 112.531 60.5278L112.45 61.0168C111.09 69.7239 106.968 75.8926 99.7794 79.8644C90.3055 85.1288 76.5808 86.2072 58.9048 86.2072Z"
            fill="white" />
        <path
            d="M59.0889 2.02943C73.1533 2.04538 86.637 7.55464 96.582 17.3486C106.527 27.1426 112.121 40.4214 112.137 54.2722C112.144 56.2471 112.022 58.2203 111.77 60.1796L111.661 60.8494C110.376 69.235 106.397 75.1626 99.4942 78.9803C90.1835 84.1376 76.6085 85.1959 59.0889 85.1959C42.0862 85.1959 23.2063 84.4323 13.5623 75.2764C12.1819 73.9689 10.9836 72.487 9.99857 70.8693L9.88975 70.6885C7.29853 66.3684 6.04033 60.9968 6.04033 54.2521C6.04033 53.9306 6.04033 53.5823 6.04033 53.2943V53.2541C6.04033 51.9146 6.13554 50.7558 6.23756 49.6373C7.40864 36.6322 13.482 24.5302 23.2615 15.715C33.041 6.89974 45.8177 2.01019 59.0753 2.00934M59.0753 0C45.3071 0.000638096 32.0382 5.07858 21.8822 14.2336C11.7262 23.3886 5.41937 35.957 4.20403 49.4632C4.08841 50.7023 4.0272 51.9547 4 53.2139C4 53.5555 4 53.8837 4 54.2521C4 61.5594 5.46224 67.2592 8.12827 71.7065C8.12602 71.7266 8.12602 71.7468 8.12827 71.7668C9.22072 73.5924 10.5616 75.2622 12.1137 76.7299C21.8121 85.9393 39.2025 87.2119 59.0413 87.2119C75.5408 87.2119 90.3263 86.3278 100.446 80.7351C107.424 76.8772 112.151 70.7755 113.627 61.1575C113.968 58.8712 114.134 56.5629 114.123 54.2521C114.123 39.8635 108.319 26.0643 97.9882 15.8901C87.6571 5.71583 73.645 0 59.0345 0H59.0753Z"
            fill="#1D1D1B" />
        <path
            d="M46.2003 65.9331C40.1406 65.9331 33.8427 65.7455 28.8439 64.4261C20.499 62.2292 16.602 57.1389 16.602 48.4117C16.602 29.3297 35.6858 13.8042 59.1428 13.8042C71.5004 13.8042 83.2323 18.1645 91.3188 25.7664C98.0043 32.049 101.684 40.0863 101.684 48.4117C101.684 64.6136 88.2787 65.9331 72.0853 65.9331C70.0994 65.9331 68.0455 65.9331 65.9643 65.8862C63.8832 65.8393 61.4892 65.8393 59.1632 65.8393C56.8373 65.8393 54.5725 65.8393 52.3621 65.8862C50.1518 65.9331 48.1863 65.9331 46.2003 65.9331Z"
            fill="#252525" />
        <path
            d="M59.1496 15.1438C71.6432 15.1438 82.831 19.638 90.3871 26.7376C96.5829 32.558 100.33 40.1332 100.33 48.4117C100.33 63.1468 88.4964 64.5935 72.0921 64.5935C68.0115 64.5935 63.6724 64.4998 59.17 64.4998C54.6677 64.4998 50.2946 64.5935 46.2479 64.5935C39.6917 64.5935 33.8699 64.3591 29.2452 63.1334C22.2877 61.2982 18.0234 57.246 18.0234 48.3983C18.0234 30.0262 36.4612 15.1304 59.204 15.1304M59.204 12.4512C34.9989 12.4512 15.3029 28.5795 15.3029 48.3983C15.3029 57.6948 19.6352 63.3611 28.5447 65.7054C33.6999 67.0449 40.1066 67.2592 46.2275 67.2592C48.2203 67.2592 50.247 67.2592 52.3893 67.2124C54.5317 67.1655 56.8713 67.1655 59.1904 67.1655C61.5096 67.1655 63.7744 67.1655 65.9915 67.2124C68.2087 67.2592 70.1538 67.2592 72.1533 67.2592C81.1648 67.2592 88.2447 66.777 93.536 64.4529C99.9834 61.613 103.112 56.3619 103.112 48.3782C103.112 39.6711 99.2829 31.2988 92.3322 24.7685C83.9872 16.9254 71.9289 12.4312 59.2108 12.4312L59.204 12.4512Z"
            fill="#DADADA" />
        <path
            d="M100.33 48.4116C100.33 66.777 81.8925 64.4863 59.1496 64.4863C47.3429 64.4863 36.706 65.1025 29.1908 63.1468C91.9921 67.8352 101.33 43.6026 90.4007 26.751C96.5829 32.558 100.33 40.1332 100.33 48.4116Z"
            fill="#202020" />
        <path opacity="0.5"
            d="M41.1879 24.8957C43.3915 27.0323 37.2229 28.8742 32.3465 33.777C27.4701 38.6798 25.6406 41.6 24.192 42.9797C22.002 45.1297 23.4371 34.8352 28.3271 29.9258C33.217 25.0163 38.9844 22.7859 41.1879 24.8957Z"
            fill="white" stroke="white" stroke-miterlimit="10" />
        <path opacity="0.5"
            d="M49.5329 21.2253C49.9001 22.9466 48.3631 22.5649 46.7512 22.9265C43.6771 23.2949 42.4053 22.3706 42.4053 21.4597C42.4053 20.9038 44.5341 19.9259 46.1459 19.591C47.7578 19.2562 49.1724 19.5375 49.5329 21.2253Z"
            fill="white" stroke="white" stroke-miterlimit="10" />
        <path
            d="M80.3418 46.0673C80.3418 48.7464 77.1861 45.498 73.2959 45.498C69.4057 45.498 66.2432 48.7196 66.2432 46.0673C66.2432 43.415 69.3989 41.2583 73.2959 41.2583C77.1929 41.2583 80.3418 43.4083 80.3418 46.0673Z"
            fill="white" />
        <path
            d="M53.049 46.0673C53.049 48.7464 49.8933 45.498 45.9963 45.498C42.0993 45.498 38.9504 48.7196 38.9504 46.0673C38.9504 43.415 42.1061 41.2583 45.9963 41.2583C49.8865 41.2583 53.049 43.4083 53.049 46.0673Z"
            fill="white" />
    </g>
    <defs>
        <filter id="filter0_d_420_2" x="-2" y="0" width="122" height="107" filterUnits="userSpaceOnUse"
            color-interpolation-filters="sRGB">
            <feFlood flood-opacity="0" result="BackgroundImageFix" />
            <feColorMatrix in="SourceAlpha" type="matrix" values="0 0 0 0 0 0 0 0 0 0 0 0 0 0 0 0 0 0 127 0"
                result="hardAlpha" />
            <feOffset dy="4" />
            <feGaussianBlur stdDeviation="2" />
            <feComposite in2="hardAlpha" operator="out" />
            <feColorMatrix type="matrix" values="0 0 0 0 0 0 0 0 0 0 0 0 0 0 0 0 0 0 0.25 0" />
            <feBlend mode="normal" in2="BackgroundImageFix" result="effect1_dropShadow_420_2" />
            <feBlend mode="normal" in="SourceGraphic" in2="effect1_dropShadow_420_2" result="shape" />
        </filter>
    </defs>
</svg>