<svg width="117" height="95" viewBox="0 0 117 95" fill="none" xmlns="http://www.w3.org/2000/svg">
<g clip-path="url(#clip0_420_12)" filter="url(#filter0_d_420_12)">
<path d="M58.4779 85.8834C41.4956 85.8834 22.5628 85.0961 12.7434 75.7218C11.2888 74.3373 10.0267 72.7666 8.99044 71.0513L8.93663 70.9512C6.28672 66.4943 4.9954 60.9764 4.9954 54.0708C4.9954 53.7372 4.9954 53.4036 4.9954 53.0767C4.9954 51.7422 5.08955 50.5212 5.19044 49.3936C6.4054 35.7853 12.8663 23.1666 23.227 14.1667C33.5877 5.16676 47.0493 0.47956 60.8073 1.08161C74.5652 1.68365 87.5585 7.52852 97.0802 17.3985C106.602 27.2685 111.918 40.4025 111.92 54.0641C111.926 56.1571 111.788 58.248 111.51 60.3226L111.436 60.7963C110.091 69.47 106.015 75.615 98.9059 79.5783C89.5303 84.8092 75.9646 85.8834 58.4779 85.8834Z" fill="white"/>
<path d="M58.4782 2.00163C72.3861 2.01929 85.7192 7.50799 95.5535 17.264C105.388 27.0201 110.921 40.247 110.938 54.0441C110.946 56.0094 110.823 57.9731 110.569 59.9222L110.461 60.5894C109.19 68.9362 105.255 74.8477 98.4354 78.6442C89.2213 83.7884 75.7968 84.8359 58.4782 84.8359C41.6641 84.8359 22.9869 84.0753 13.4566 74.9545C12.0915 73.652 10.9065 72.1757 9.9324 70.5642L9.81806 70.3774C7.26231 66.1273 6.01806 60.7896 6.01806 54.0508C6.01806 53.7238 6.01806 53.3836 6.01806 53.09V53.0566C6.01806 51.7222 6.11222 50.5613 6.2131 49.4537C7.36982 36.4949 13.377 24.4359 23.0511 15.6527C32.7251 6.86954 45.3643 1.9993 58.4782 2.00163ZM58.4782 0C44.8627 0.000635649 31.741 5.05911 21.6976 14.179C11.6543 23.2989 5.41744 35.8192 4.21558 49.2735C4.10124 50.5146 4.04071 51.7556 4.01381 53.0166C4.01381 53.3502 4.01381 53.6838 4.01381 54.0508C4.01381 61.3234 5.45983 67.0013 8.09629 71.4383C8.10502 71.4575 8.11633 71.4755 8.12992 71.4917C9.21017 73.3123 10.5362 74.978 12.0712 76.4424C21.662 85.6165 38.8595 86.8776 58.4782 86.8776C74.7947 86.8776 89.4163 86.0035 99.4241 80.4256C106.325 76.5825 110.999 70.5042 112.458 60.9297C112.797 58.6523 112.964 56.3529 112.956 54.0508C112.956 39.7174 107.216 25.9711 96.9999 15.8358C86.7833 5.70059 72.9267 0.00667354 58.4782 0.00667354V0Z" fill="#1D1D1B"/>
<path d="M45.9076 65.6803C39.915 65.6803 33.6938 65.5001 28.7437 64.1857C20.4913 61.9906 16.6375 56.9198 16.6375 48.226C16.6375 29.2172 35.5097 13.7512 58.7065 13.7512C70.9271 13.7512 82.5221 18.1014 90.5257 25.6743C97.137 31.9261 100.776 39.9393 100.776 48.226C100.776 64.3659 87.5193 65.6803 71.4988 65.6803C69.5349 65.6803 67.5037 65.6803 65.4457 65.6335C63.2598 65.6335 61.0135 65.5935 58.72 65.5935C56.4265 65.5935 54.1802 65.5935 51.9943 65.6402C49.8085 65.6869 47.8782 65.6803 45.9076 65.6803Z" fill="#252525"/>
<path d="M58.72 15.0858C71.075 15.0858 82.1388 19.5627 89.611 26.6352C95.738 32.4332 99.4439 39.9794 99.4439 48.2261C99.4439 62.9048 87.7345 64.3459 71.5122 64.3459C67.4768 64.3459 63.1926 64.2525 58.7335 64.2525C54.2743 64.2525 49.9497 64.3459 45.9211 64.3459C39.4442 64.3459 33.6871 64.1124 29.1069 62.8914C22.2266 61.0699 18.0096 57.0266 18.0096 48.2128C18.0096 29.9112 36.2428 15.0724 58.7335 15.0724M58.7335 12.4036C34.7968 12.4036 15.3193 28.47 15.3193 48.2128C15.3193 57.4803 19.6035 63.1183 28.4142 65.4602C33.5055 66.7946 39.8478 67.0014 45.9009 67.0014C47.8782 67.0014 49.8825 67.0014 52.0011 66.9614C54.1196 66.9214 56.4333 66.908 58.7267 66.908C61.0202 66.908 63.2531 66.908 65.4524 66.9547C67.6517 67.0015 69.5685 67.0014 71.5055 67.0014C80.417 67.0014 87.4251 66.5277 92.651 64.2058C99.0269 61.3835 102.127 56.1526 102.127 48.1928C102.127 39.519 98.3409 31.1856 91.4605 24.6736C83.2081 16.8672 71.2835 12.3835 58.7133 12.3835L58.7335 12.4036Z" fill="#DADADA"/>
<path d="M99.4439 48.226C99.4439 66.5276 81.2106 64.2391 58.72 64.2391C47.0442 64.2391 36.5253 64.8529 29.0934 62.9047C91.1982 67.5752 100.433 43.4421 89.6244 26.6484C95.7381 32.4332 99.4439 39.9793 99.4439 48.226Z" fill="#202020"/>
<path opacity="0.5" d="M40.9912 24.8268C43.1703 26.9552 37.0634 28.7901 32.2478 33.6807C27.4322 38.5714 25.5221 41.4404 24.177 42.8282C22.0181 44.9766 23.4304 34.7149 28.2729 29.8309C33.1154 24.9469 38.7717 22.7051 40.9912 24.8268Z" fill="white" stroke="white" stroke-miterlimit="10"/>
<path opacity="0.5" d="M49.2099 21.1506C49.5731 22.8587 48.0464 22.4851 46.4524 22.8387C43.4191 23.2056 42.1614 22.2849 42.1614 21.3775C42.1614 20.8237 44.2666 19.8496 45.8538 19.5226C47.4411 19.1957 48.8467 19.4226 49.2099 21.1506Z" fill="white" stroke="white" stroke-miterlimit="10"/>
<path d="M45.2962 54.3076L75.5205 33.3129C76.4333 32.6788 76.6551 31.4307 76.016 30.5252L74.959 29.0276C74.3198 28.1221 73.0617 27.902 72.1489 28.5361L41.9246 49.5308C41.0118 50.1649 40.79 51.413 41.4291 52.3185L42.4861 53.8161C43.1253 54.7216 44.3834 54.9417 45.2962 54.3076Z" fill="white"/>
<path d="M41.6747 33.5569L71.899 54.5516C72.8118 55.1857 74.0699 54.9656 74.7091 54.0601L75.7661 52.5625C76.4052 51.657 76.1834 50.4089 75.2706 49.7748L45.0463 28.7801C44.1335 28.146 42.8754 28.3661 42.2362 29.2716L41.1792 30.7692C40.5401 31.6747 40.7619 32.9228 41.6747 33.5569Z" fill="white"/>
</g>
<defs>
<filter id="filter0_d_420_12" x="0" y="0" width="116.956" height="94.8774" filterUnits="userSpaceOnUse" color-interpolation-filters="sRGB">
<feFlood flood-opacity="0" result="BackgroundImageFix"/>
<feColorMatrix in="SourceAlpha" type="matrix" values="0 0 0 0 0 0 0 0 0 0 0 0 0 0 0 0 0 0 127 0" result="hardAlpha"/>
<feOffset dy="4"/>
<feGaussianBlur stdDeviation="2"/>
<feComposite in2="hardAlpha" operator="out"/>
<feColorMatrix type="matrix" values="0 0 0 0 0 0 0 0 0 0 0 0 0 0 0 0 0 0 0.25 0"/>
<feBlend mode="normal" in2="BackgroundImageFix" result="effect1_dropShadow_420_12"/>
<feBlend mode="normal" in="SourceGraphic" in2="effect1_dropShadow_420_12" result="shape"/>
</filter>
<clipPath id="clip0_420_12">
<rect width="108.956" height="86.8776" fill="white" transform="translate(4)"/>
</clipPath>
</defs>
</svg>
